Coordinates
version=1
nRows=11
nColumns=40
inDegrees=yes

Units are S.I. units (second, meters, Newtons, ...)
Angles are in degrees.

endheader
time	pelvis_tilt	pelvis_list	pelvis_rotation	pelvis_tx	pelvis_ty	pelvis_tz	hip_flexion_r	hip_adduction_r	hip_rotation_r	knee_angle_r	knee_angle_r_beta	ankle_angle_r	subtalar_angle_r	mtp_angle_r	hip_flexion_l	hip_adduction_l	hip_rotation_l	knee_angle_l	knee_angle_l_beta	ankle_angle_l	subtalar_angle_l	mtp_angle_l	lumbar_extension	lumbar_bending	lumbar_rotation	arm_flex_r	arm_add_r	arm_rot_r	elbow_flex_r	pro_sup_r	wrist_flex_r	wrist_dev_r	arm_flex_l	arm_add_l	arm_rot_l	elbow_flex_l	pro_sup_l	wrist_flex_l	wrist_dev_l
      4.21250000	     -3.63941471	     -5.88652893	     -6.13084125	      0.94141769	      0.91592919	      0.37419469	     32.06765417	     -6.16945204	     -2.94862283	     55.49974802	     55.49974802	      2.08398306	    -12.81682140	     -7.21080367	     19.01222921	     -4.37579514	     -7.35442159	     33.43431753	     33.43431753	     20.34779788	    -15.72510862	      5.52347780	    -12.67010798	      5.61677340	      0.66398242	    -14.23318004	    -12.74892844	     -5.58313214	     28.70869981	     46.01227983	      0.00000000	      0.00000000	     29.36775804	    -20.04401586	      4.39705137	     42.76464660	     47.01345960	      0.00000000	      0.00000000
      4.23500000	     -3.77942143	     -5.94692180	     -7.10576482	      0.93981114	      0.91768623	      0.37465568	     32.20420066	     -5.72339804	     -3.30283877	     50.87957435	     50.87957435	      2.33092390	    -11.65287045	     -7.09791166	     18.27716731	     -4.60831482	     -8.28841276	     32.48688859	     32.48688859	     20.33784295	    -15.56820179	      5.64241576	    -12.48193463	      5.49324331	      0.27155872	    -15.67309422	    -12.63973690	     -5.49639751	     28.51826562	     46.00201524	      0.00000000	      0.00000000	     30.85034265	    -20.80392923	      3.86616219	     43.48642272	     47.08410136	      0.00000000	      0.00000000
      4.25750000	     -3.92794488	     -6.01411677	     -8.09123315	      0.93825354	      0.91953906	      0.37553110	     31.82373315	     -5.23390228	     -3.76391469	     45.34865630	     45.34865630	      1.60288744	    -10.37462610	     -9.28662208	     17.45420715	     -4.89269598	     -9.38535465	     31.36894125	     31.36894125	     19.95174684	    -15.34173523	      4.86075523	    -12.35029049	      5.37283852	      0.12910459	    -17.92341241	    -12.69294510	     -5.02091176	     30.95727996	     45.84931003	      0.00000000	      0.00000000	     32.07436654	    -20.78673590	      0.49695169	     45.10098293	     47.40175801	      0.00000000	      0.00000000
      4.28000000	     -4.33059984	     -6.04554732	     -8.99885217	      0.93652342	      0.92112163	      0.37679219	     31.43601887	     -4.60634931	     -4.05402529	     39.57361292	     39.57361292	      1.51599161	     -8.45005313	     -8.46544740	     16.95949264	     -5.12222314	    -10.21820671	     30.30987280	     30.30987280	     19.89238313	    -15.08675432	      4.99253200	    -11.82914333	      5.21091509	     -0.14920985	    -18.77651402	    -12.43506367	     -4.92593168	     30.88033293	     45.83941289	      0.00000000	      0.00000000	     33.44169360	    -21.50137970	      0.13788487	     45.73863002	     47.45105188	      0.00000000	      0.00000000
      4.30250000	     -4.48909708	     -6.14613186	     -9.80993087	      0.93506336	      0.92300944	      0.37822333	     30.41188174	     -3.97802535	     -4.51565343	     33.53592379	     33.53592379	      1.22061673	     -5.78846830	     -7.37552724	     16.11684789	     -5.37198491	    -11.09591054	     29.13607611	     29.13607611	     19.79933961	    -14.76033865	      5.07266744	    -11.63087444	      5.14065970	     -0.25163284	    -19.53161117	    -12.19183743	     -4.83269957	     30.97923361	     45.82265050	      0.00000000	      0.00000000	     34.73795937	    -21.91479264	     -0.33335796	     46.56080954	     47.51479227	      0.00000000	      0.00000000
      4.32500000	     -4.38584449	     -6.14660015	    -10.53633452	      0.93390672	      0.92474456	      0.37969666	     29.27590035	     -3.71946924	     -5.42774158	     28.41526423	     28.41526423	      2.45014182	     -1.00583943	     -2.22842201	     14.96305093	     -5.49160010	    -12.14689100	     27.88127603	     27.88127603	     19.08961584	    -14.38514346	      3.16736201	    -11.75326850	      4.89273351	     -0.46287164	    -20.81833523	    -12.42253195	     -3.28262692	     33.17090627	     45.65085243	      0.00000000	      0.00000000	     35.52659375	    -21.64129756	     -4.16018984	     48.67023394	     47.76905819	      0.00000000	      0.00000000
      4.34750000	     -4.46051456	     -6.13476710	    -11.15430546	      0.93272222	      0.92591695	      0.38149203	     28.19943586	     -3.20971544	     -5.69756851	     23.42349300	     23.42349300	      1.92687585	      1.89522689	     -0.53681517	     14.18107795	     -5.59599462	    -12.91395506	     26.96170628	     26.96170628	     19.08949888	    -13.99025966	      3.14264511	    -11.56982944	      4.67753720	     -0.54588636	    -21.22303423	    -12.17207282	     -3.21178113	     33.30318127	     45.63961205	      0.00000000	      0.00000000	     36.68072285	    -21.97165264	     -4.37898100	     49.49784483	     47.80274942	      0.00000000	      0.00000000
      4.37000000	     -4.50210213	     -6.01906352	    -11.67217768	      0.93160937	      0.92663080	      0.38320334	     27.67850822	     -3.08322183	     -6.38702954	     20.24445375	     20.24445375	      3.40411839	      5.89567212	      6.15355722	     13.43971707	     -5.60467960	    -13.78015852	     26.10826286	     26.10826286	     18.75126652	    -13.50830490	      1.90062348	    -11.47347033	      4.40590189	     -0.77269808	    -21.69644079	    -12.02624195	     -3.05820614	     34.52911304	     45.59288534	      0.00000000	      0.00000000	     37.29029304	    -22.17981893	     -5.64874823	     51.53342358	     47.88849629	      0.00000000	      0.00000000
      4.39250000	     -4.52502676	     -5.89338950	    -12.10362449	      0.93069638	      0.92708785	      0.38509004	     27.06976494	     -2.81882389	     -6.38993900	     17.39621582	     17.39621582	      2.97752042	      8.12090747	      7.41113587	     12.77089552	     -5.55331208	    -14.38815114	     25.43897458	     25.43897458	     18.81341516	    -13.15624369	      1.81589611	    -11.30804472	      4.14703735	     -0.78137126	    -21.77046000	    -11.80748656	     -2.94759528	     34.54884429	     45.58698217	      0.00000000	      0.00000000	     38.30022992	    -22.28791623	     -5.78561107	     52.20613410	     47.91158772	      0.00000000	      0.00000000
      4.41500000	     -4.53457795	     -5.75959943	    -12.43639605	      0.92987818	      0.92725988	      0.38688757	     26.88780989	     -2.79656043	     -6.84970964	     16.07166430	     16.07166430	      3.81093235	     10.77006862	     11.30884560	     12.16948300	     -5.52474793	    -15.06643442	     24.89163626	     24.89163626	     18.65011883	    -12.70757590	      0.80933778	    -11.22903945	      3.90640318	     -0.95222348	    -21.72960199	    -11.72940028	     -2.69882238	     34.87924366	     45.57659368	      0.00000000	      0.00000000	     38.77663692	    -22.34622842	     -6.70470193	     53.85353314	     47.96473351	      0.00000000	      0.00000000
      4.43750000	     -4.51890592	     -5.61917918	    -12.66830513	      0.92931512	      0.92724718	      0.38880297	     26.59813702	     -2.70661451	     -6.75652267	     15.10721967	     15.10721967	      3.59260054	     12.17418805	     11.63992187	     11.64312485	     -5.44871709	    -15.46414132	     24.54051517	     24.54051517	     18.79426783	    -12.45160691	      0.69918114	    -11.11192380	      3.70316960	     -0.95777008	    -21.62033122	    -11.64846465	     -2.62288472	     34.90084427	     45.57480202	      0.00000000	      0.00000000	     39.51670444	    -22.28621732	     -6.81184540	     54.46602851	     47.98075113	      0.00000000	      0.00000000
